<svg xmlns="http://www.w3.org/2000/svg" width="980" height="460" viewBox="0 0 980 460">
<rect width="100%" height="100%" fill="#fbfbf8"/>
<text x="60" y="32" font-family="monospace" font-size="20" fill="#111">Module 2: intervention pre/post attack margin</text>
<text x="60" y="442" font-family="monospace" font-size="12" fill="#444">layer</text>
<text x="16" y="60" font-family="monospace" font-size="12" fill="#444">margin</text>
<line x1="60" y1="400" x2="920" y2="400" stroke="#333"/>
<line x1="60" y1="60" x2="60" y2="400" stroke="#333"/>
<line x1="60" y1="328.5709580340779" x2="920" y2="328.5709580340779" stroke="#999" stroke-dasharray="4 4"/>
<text x="54.0" y="418" font-family="monospace" font-size="10" fill="#444">0</text>
<text x="127.71428571428572" y="418" font-family="monospace" font-size="10" fill="#444">3</text>
<text x="201.42857142857142" y="418" font-family="monospace" font-size="10" fill="#444">6</text>
<text x="275.1428571428571" y="418" font-family="monospace" font-size="10" fill="#444">9</text>
<text x="348.85714285714283" y="418" font-family="monospace" font-size="10" fill="#444">12</text>
<text x="422.57142857142856" y="418" font-family="monospace" font-size="10" fill="#444">15</text>
<text x="496.2857142857143" y="418" font-family="monospace" font-size="10" fill="#444">18</text>
<text x="570.0" y="418" font-family="monospace" font-size="10" fill="#444">21</text>
<text x="643.7142857142857" y="418" font-family="monospace" font-size="10" fill="#444">24</text>
<text x="717.4285714285714" y="418" font-family="monospace" font-size="10" fill="#444">27</text>
<text x="791.1428571428571" y="418" font-family="monospace" font-size="10" fill="#444">30</text>
<text x="864.8571428571429" y="418" font-family="monospace" font-size="10" fill="#444">33</text>
<polyline fill="none" stroke="#175e8a" stroke-width="2" points="60.0,324.3 84.6,303.3 109.1,305.2 133.7,301.4 158.3,320.9 182.9,324.2 207.4,329.6 232.0,324.8 256.6,321.2 281.1,330.3 305.7,322.2 330.3,342.7 354.9,349.9 379.4,354.1 404.0,362.5 428.6,376.6 453.1,335.8 477.7,323.3 502.3,341.3 526.9,335.7 551.4,344.3 576.0,342.5 600.6,354.1 625.1,334.7 649.7,302.0 674.3,317.7 698.9,328.1 723.4,324.5 748.0,343.6 772.6,368.4 797.1,341.1 821.7,357.7 846.3,310.7 870.9,258.1 895.4,267.7 920.0,89.3"/>
<rect x="730" y="48" width="12" height="12" fill="#175e8a"/>
<text x="748" y="58" font-family="monospace" font-size="12" fill="#111">baseline attack</text>
<polyline fill="none" stroke="#c2410c" stroke-width="2" points="60.0,324.3 84.6,303.3 109.1,305.2 133.7,301.4 158.3,320.9 182.9,324.2 207.4,329.6 232.0,324.8 256.6,321.2 281.1,330.3 305.7,322.2 330.3,342.7 354.9,349.9 379.4,354.1 404.0,362.5 428.6,376.6 453.1,335.8 477.7,323.3 502.3,341.3 526.9,335.7 551.4,344.3 576.0,342.5 600.6,354.1 625.1,334.7 649.7,302.0 674.3,317.7 698.9,328.1 723.4,324.5 748.0,343.6 772.6,368.4 797.1,341.1 821.7,357.7 846.3,310.7 870.9,258.1 895.4,267.7 920.0,83.4"/>
<rect x="730" y="68" width="12" height="12" fill="#c2410c"/>
<text x="748" y="78" font-family="monospace" font-size="12" fill="#111">intervened attack</text>
<polyline fill="none" stroke="#166534" stroke-width="2" points="60.0,328.6 84.6,328.6 109.1,328.6 133.7,328.6 158.3,328.6 182.9,328.6 207.4,328.6 232.0,328.6 256.6,328.6 281.1,328.6 305.7,328.6 330.3,328.6 354.9,328.6 379.4,328.6 404.0,328.6 428.6,328.6 453.1,328.6 477.7,328.6 502.3,328.6 526.9,328.6 551.4,328.6 576.0,328.6 600.6,328.6 625.1,328.6 649.7,328.6 674.3,328.6 698.9,328.6 723.4,328.6 748.0,328.6 772.6,328.6 797.1,328.6 821.7,328.6 846.3,328.6 870.9,328.6 895.4,328.6 920.0,322.7"/>
<rect x="730" y="88" width="12" height="12" fill="#166534"/>
<text x="748" y="98" font-family="monospace" font-size="12" fill="#111">delta</text>
</svg>