<svg xmlns="http://www.w3.org/2000/svg" width="980" height="460" viewBox="0 0 980 460">
<rect width="100%" height="100%" fill="#fbfbf8"/>
<text x="60" y="32" font-family="monospace" font-size="20" fill="#111">Module 2: intervention pre/post attack margin</text>
<text x="60" y="442" font-family="monospace" font-size="12" fill="#444">layer</text>
<text x="16" y="60" font-family="monospace" font-size="12" fill="#444">margin</text>
<line x1="60" y1="400" x2="920" y2="400" stroke="#333"/>
<line x1="60" y1="60" x2="60" y2="400" stroke="#333"/>
<line x1="60" y1="327.59056008965416" x2="920" y2="327.59056008965416" stroke="#999" stroke-dasharray="4 4"/>
<text x="54.0" y="418" font-family="monospace" font-size="10" fill="#444">0</text>
<text x="127.71428571428572" y="418" font-family="monospace" font-size="10" fill="#444">3</text>
<text x="201.42857142857142" y="418" font-family="monospace" font-size="10" fill="#444">6</text>
<text x="275.1428571428571" y="418" font-family="monospace" font-size="10" fill="#444">9</text>
<text x="348.85714285714283" y="418" font-family="monospace" font-size="10" fill="#444">12</text>
<text x="422.57142857142856" y="418" font-family="monospace" font-size="10" fill="#444">15</text>
<text x="496.2857142857143" y="418" font-family="monospace" font-size="10" fill="#444">18</text>
<text x="570.0" y="418" font-family="monospace" font-size="10" fill="#444">21</text>
<text x="643.7142857142857" y="418" font-family="monospace" font-size="10" fill="#444">24</text>
<text x="717.4285714285714" y="418" font-family="monospace" font-size="10" fill="#444">27</text>
<text x="791.1428571428571" y="418" font-family="monospace" font-size="10" fill="#444">30</text>
<text x="864.8571428571429" y="418" font-family="monospace" font-size="10" fill="#444">33</text>
<polyline fill="none" stroke="#175e8a" stroke-width="2" points="60.0,323.2 84.6,301.8 109.1,303.7 133.7,299.9 158.3,319.8 182.9,323.2 207.4,328.6 232.0,323.7 256.6,320.1 281.1,329.3 305.7,321.1 330.3,342.1 354.9,349.4 379.4,353.6 404.0,362.2 428.6,376.6 453.1,335.0 477.7,322.2 502.3,340.5 526.9,334.9 551.4,343.7 576.0,341.8 600.6,353.7 625.1,333.9 649.7,300.5 674.3,316.5 698.9,327.1 723.4,323.5 748.0,342.9 772.6,368.2 797.1,340.4 821.7,357.3 846.3,309.4 870.9,255.7 895.4,265.4 920.0,83.4"/>
<rect x="730" y="48" width="12" height="12" fill="#175e8a"/>
<text x="748" y="58" font-family="monospace" font-size="12" fill="#111">baseline attack</text>
<polyline fill="none" stroke="#c2410c" stroke-width="2" points="60.0,323.2 84.6,301.8 109.1,303.7 133.7,299.9 158.3,319.8 182.9,323.2 207.4,328.6 232.0,323.7 256.6,320.1 281.1,329.3 305.7,321.1 330.3,342.1 354.9,349.4 379.4,353.6 404.0,362.2 428.6,376.6 453.1,335.0 477.7,322.2 502.3,340.5 526.9,334.9 551.4,343.7 576.0,341.8 600.6,353.7 625.1,333.9 649.7,300.5 674.3,316.5 698.9,327.1 723.4,323.5 748.0,342.9 772.6,368.2 797.1,340.4 821.7,357.3 846.3,306.9 870.9,210.8 895.4,243.0 920.0,85.1"/>
<rect x="730" y="68" width="12" height="12" fill="#c2410c"/>
<text x="748" y="78" font-family="monospace" font-size="12" fill="#111">intervened attack</text>
<polyline fill="none" stroke="#166534" stroke-width="2" points="60.0,327.6 84.6,327.6 109.1,327.6 133.7,327.6 158.3,327.6 182.9,327.6 207.4,327.6 232.0,327.6 256.6,327.6 281.1,327.6 305.7,327.6 330.3,327.6 354.9,327.6 379.4,327.6 404.0,327.6 428.6,327.6 453.1,327.6 477.7,327.6 502.3,327.6 526.9,327.6 551.4,327.6 576.0,327.6 600.6,327.6 625.1,327.6 649.7,327.6 674.3,327.6 698.9,327.6 723.4,327.6 748.0,327.6 772.6,327.6 797.1,327.6 821.7,327.6 846.3,325.1 870.9,282.7 895.4,305.2 920.0,329.3"/>
<rect x="730" y="88" width="12" height="12" fill="#166534"/>
<text x="748" y="98" font-family="monospace" font-size="12" fill="#111">delta</text>
</svg>