<svg xmlns="http://www.w3.org/2000/svg" width="480" height="420" viewBox="0 0 480 420">
<rect width="100%" height="100%" fill="#fbfbf8"/>
<text x="24" y="32" font-family="monospace" font-size="18" fill="#111">Module 4: layer subspace similarity, Emotional</text>
<text x="156" y="68" font-family="monospace" font-size="10" fill="#333" transform="rotate(-35 156,68)">31</text>
<text x="12" y="114" font-family="monospace" font-size="11" fill="#333">31</text>
<text x="214" y="68" font-family="monospace" font-size="10" fill="#333" transform="rotate(-35 214,68)">32</text>
<text x="12" y="172" font-family="monospace" font-size="11" fill="#333">32</text>
<text x="272" y="68" font-family="monospace" font-size="10" fill="#333" transform="rotate(-35 272,68)">33</text>
<text x="12" y="230" font-family="monospace" font-size="11" fill="#333">33</text>
<text x="330" y="68" font-family="monospace" font-size="10" fill="#333" transform="rotate(-35 330,68)">34</text>
<text x="12" y="288" font-family="monospace" font-size="11" fill="#333">34</text>
<text x="388" y="68" font-family="monospace" font-size="10" fill="#333" transform="rotate(-35 388,68)">35</text>
<text x="12" y="346" font-family="monospace" font-size="11" fill="#333">35</text>
<rect x="150" y="80" width="56" height="56" fill="rgb(105,175,75)" stroke="#fff"/>
<text x="161" y="113" font-family="monospace" font-size="12" fill="#111">1.00</text>
<rect x="208" y="80" width="56" height="56" fill="rgb(117,180,87)" stroke="#fff"/>
<text x="219" y="113" font-family="monospace" font-size="12" fill="#111">0.92</text>
<rect x="266" y="80" width="56" height="56" fill="rgb(130,186,102)" stroke="#fff"/>
<text x="277" y="113" font-family="monospace" font-size="12" fill="#111">0.83</text>
<rect x="324" y="80" width="56" height="56" fill="rgb(168,204,142)" stroke="#fff"/>
<text x="335" y="113" font-family="monospace" font-size="12" fill="#111">0.58</text>
<rect x="382" y="80" width="56" height="56" fill="rgb(197,217,173)" stroke="#fff"/>
<text x="393" y="113" font-family="monospace" font-size="12" fill="#111">0.39</text>
<rect x="150" y="138" width="56" height="56" fill="rgb(117,180,87)" stroke="#fff"/>
<text x="161" y="171" font-family="monospace" font-size="12" fill="#111">0.92</text>
<rect x="208" y="138" width="56" height="56" fill="rgb(105,175,75)" stroke="#fff"/>
<text x="219" y="171" font-family="monospace" font-size="12" fill="#111">1.00</text>
<rect x="266" y="138" width="56" height="56" fill="rgb(120,182,91)" stroke="#fff"/>
<text x="277" y="171" font-family="monospace" font-size="12" fill="#111">0.90</text>
<rect x="324" y="138" width="56" height="56" fill="rgb(168,204,142)" stroke="#fff"/>
<text x="335" y="171" font-family="monospace" font-size="12" fill="#111">0.58</text>
<rect x="382" y="138" width="56" height="56" fill="rgb(188,213,163)" stroke="#fff"/>
<text x="393" y="171" font-family="monospace" font-size="12" fill="#111">0.44</text>
<rect x="150" y="196" width="56" height="56" fill="rgb(130,186,102)" stroke="#fff"/>
<text x="161" y="229" font-family="monospace" font-size="12" fill="#111">0.83</text>
<rect x="208" y="196" width="56" height="56" fill="rgb(120,182,91)" stroke="#fff"/>
<text x="219" y="229" font-family="monospace" font-size="12" fill="#111">0.90</text>
<rect x="266" y="196" width="56" height="56" fill="rgb(105,175,75)" stroke="#fff"/>
<text x="277" y="229" font-family="monospace" font-size="12" fill="#111">1.00</text>
<rect x="324" y="196" width="56" height="56" fill="rgb(144,193,117)" stroke="#fff"/>
<text x="335" y="229" font-family="monospace" font-size="12" fill="#111">0.74</text>
<rect x="382" y="196" width="56" height="56" fill="rgb(179,209,154)" stroke="#fff"/>
<text x="393" y="229" font-family="monospace" font-size="12" fill="#111">0.50</text>
<rect x="150" y="254" width="56" height="56" fill="rgb(168,204,142)" stroke="#fff"/>
<text x="161" y="287" font-family="monospace" font-size="12" fill="#111">0.58</text>
<rect x="208" y="254" width="56" height="56" fill="rgb(168,204,142)" stroke="#fff"/>
<text x="219" y="287" font-family="monospace" font-size="12" fill="#111">0.58</text>
<rect x="266" y="254" width="56" height="56" fill="rgb(144,193,117)" stroke="#fff"/>
<text x="277" y="287" font-family="monospace" font-size="12" fill="#111">0.74</text>
<rect x="324" y="254" width="56" height="56" fill="rgb(105,175,75)" stroke="#fff"/>
<text x="335" y="287" font-family="monospace" font-size="12" fill="#111">1.00</text>
<rect x="382" y="254" width="56" height="56" fill="rgb(193,216,169)" stroke="#fff"/>
<text x="393" y="287" font-family="monospace" font-size="12" fill="#111">0.41</text>
<rect x="150" y="312" width="56" height="56" fill="rgb(197,217,173)" stroke="#fff"/>
<text x="161" y="345" font-family="monospace" font-size="12" fill="#111">0.39</text>
<rect x="208" y="312" width="56" height="56" fill="rgb(188,213,163)" stroke="#fff"/>
<text x="219" y="345" font-family="monospace" font-size="12" fill="#111">0.44</text>
<rect x="266" y="312" width="56" height="56" fill="rgb(179,209,154)" stroke="#fff"/>
<text x="277" y="345" font-family="monospace" font-size="12" fill="#111">0.50</text>
<rect x="324" y="312" width="56" height="56" fill="rgb(193,216,169)" stroke="#fff"/>
<text x="335" y="345" font-family="monospace" font-size="12" fill="#111">0.41</text>
<rect x="382" y="312" width="56" height="56" fill="rgb(105,175,75)" stroke="#fff"/>
<text x="393" y="345" font-family="monospace" font-size="12" fill="#111">1.00</text>
</svg>