<svg xmlns="http://www.w3.org/2000/svg" width="980" height="460" viewBox="0 0 980 460">
<rect width="100%" height="100%" fill="#fbfbf8"/>
<text x="60" y="32" font-family="monospace" font-size="20" fill="#111">Module 3: attack-base representation shift</text>
<text x="60" y="442" font-family="monospace" font-size="12" fill="#444">layer</text>
<text x="16" y="60" font-family="monospace" font-size="12" fill="#444">value</text>
<line x1="60" y1="400" x2="920" y2="400" stroke="#333"/>
<line x1="60" y1="60" x2="60" y2="400" stroke="#333"/>
<line x1="60" y1="377.1966710533578" x2="920" y2="377.1966710533578" stroke="#999" stroke-dasharray="4 4"/>
<text x="54.0" y="418" font-family="monospace" font-size="10" fill="#444">0</text>
<text x="127.71428571428572" y="418" font-family="monospace" font-size="10" fill="#444">3</text>
<text x="201.42857142857142" y="418" font-family="monospace" font-size="10" fill="#444">6</text>
<text x="275.1428571428571" y="418" font-family="monospace" font-size="10" fill="#444">9</text>
<text x="348.85714285714283" y="418" font-family="monospace" font-size="10" fill="#444">12</text>
<text x="422.57142857142856" y="418" font-family="monospace" font-size="10" fill="#444">15</text>
<text x="496.2857142857143" y="418" font-family="monospace" font-size="10" fill="#444">18</text>
<text x="570.0" y="418" font-family="monospace" font-size="10" fill="#444">21</text>
<text x="643.7142857142857" y="418" font-family="monospace" font-size="10" fill="#444">24</text>
<text x="717.4285714285714" y="418" font-family="monospace" font-size="10" fill="#444">27</text>
<text x="791.1428571428571" y="418" font-family="monospace" font-size="10" fill="#444">30</text>
<text x="864.8571428571429" y="418" font-family="monospace" font-size="10" fill="#444">33</text>
<polyline fill="none" stroke="#175e8a" stroke-width="2" points="60.0,376.6 84.6,375.8 109.1,375.2 133.7,374.0 158.3,372.7 182.9,371.7 207.4,370.1 232.0,367.1 256.6,363.5 281.1,363.3 305.7,363.3 330.3,361.5 354.9,360.5 379.4,358.6 404.0,356.4 428.6,349.4 453.1,348.4 477.7,346.8 502.3,342.9 526.9,333.8 551.4,327.1 576.0,317.7 600.6,314.6 625.1,301.7 649.7,288.8 674.3,278.7 698.9,268.3 723.4,256.8 748.0,244.9 772.6,228.9 797.1,205.8 821.7,185.5 846.3,162.5 870.9,131.6 895.4,83.4 920.0,210.4"/>
<rect x="730" y="48" width="12" height="12" fill="#175e8a"/>
<text x="748" y="58" font-family="monospace" font-size="12" fill="#111">||delta h||</text>
<polyline fill="none" stroke="#c2410c" stroke-width="2" points="60.0,375.4 84.6,375.4 109.1,375.4 133.7,375.5 158.3,375.5 182.9,375.4 207.4,375.5 232.0,375.5 256.6,375.5 281.1,375.5 305.7,375.5 330.3,375.5 354.9,375.5 379.4,375.5 404.0,375.6 428.6,375.7 453.1,375.7 477.7,375.6 502.3,375.6 526.9,375.7 551.4,375.7 576.0,375.7 600.6,375.8 625.1,375.7 649.7,375.7 674.3,375.6 698.9,375.6 723.4,375.6 748.0,375.6 772.6,375.6 797.1,375.6 821.7,375.6 846.3,375.6 870.9,375.6 895.4,375.5 920.0,375.8"/>
<rect x="730" y="68" width="12" height="12" fill="#c2410c"/>
<text x="748" y="78" font-family="monospace" font-size="12" fill="#111">cosine(base,attack)</text>
</svg>