<svg xmlns="http://www.w3.org/2000/svg" width="980" height="460" viewBox="0 0 980 460">
<rect width="100%" height="100%" fill="#fbfbf8"/>
<text x="60" y="32" font-family="monospace" font-size="20" fill="#111">Module 1: layer-wise correct-vs-wrong margin</text>
<text x="60" y="442" font-family="monospace" font-size="12" fill="#444">layer</text>
<text x="16" y="60" font-family="monospace" font-size="12" fill="#444">margin</text>
<line x1="60" y1="400" x2="920" y2="400" stroke="#333"/>
<line x1="60" y1="60" x2="60" y2="400" stroke="#333"/>
<line x1="60" y1="362.0161805184605" x2="920" y2="362.0161805184605" stroke="#999" stroke-dasharray="4 4"/>
<text x="54.0" y="418" font-family="monospace" font-size="10" fill="#444">0</text>
<text x="127.71428571428572" y="418" font-family="monospace" font-size="10" fill="#444">3</text>
<text x="201.42857142857142" y="418" font-family="monospace" font-size="10" fill="#444">6</text>
<text x="275.1428571428571" y="418" font-family="monospace" font-size="10" fill="#444">9</text>
<text x="348.85714285714283" y="418" font-family="monospace" font-size="10" fill="#444">12</text>
<text x="422.57142857142856" y="418" font-family="monospace" font-size="10" fill="#444">15</text>
<text x="496.2857142857143" y="418" font-family="monospace" font-size="10" fill="#444">18</text>
<text x="570.0" y="418" font-family="monospace" font-size="10" fill="#444">21</text>
<text x="643.7142857142857" y="418" font-family="monospace" font-size="10" fill="#444">24</text>
<text x="717.4285714285714" y="418" font-family="monospace" font-size="10" fill="#444">27</text>
<text x="791.1428571428571" y="418" font-family="monospace" font-size="10" fill="#444">30</text>
<text x="864.8571428571429" y="418" font-family="monospace" font-size="10" fill="#444">33</text>
<polyline fill="none" stroke="#175e8a" stroke-width="2" points="60.0,360.9 84.6,354.1 109.1,354.8 133.7,353.1 158.3,360.0 182.9,361.2 207.4,362.3 232.0,362.6 256.6,358.2 281.1,361.5 305.7,362.1 330.3,366.3 354.9,367.3 379.4,364.4 404.0,368.2 428.6,371.8 453.1,365.3 477.7,363.1 502.3,368.1 526.9,364.1 551.4,363.7 576.0,365.6 600.6,362.1 625.1,352.7 649.7,283.2 674.3,304.8 698.9,305.8 723.4,309.1 748.0,318.1 772.6,223.6 797.1,235.6 821.7,185.2 846.3,183.8 870.9,176.7 895.4,222.5 920.0,83.4"/>
<rect x="730" y="48" width="12" height="12" fill="#175e8a"/>
<text x="748" y="58" font-family="monospace" font-size="12" fill="#111">base</text>
<polyline fill="none" stroke="#c2410c" stroke-width="2" points="60.0,360.7 84.6,354.4 109.1,354.9 133.7,353.8 158.3,359.7 182.9,360.7 207.4,362.3 232.0,360.9 256.6,359.8 281.1,362.5 305.7,360.1 330.3,366.3 354.9,368.5 379.4,369.7 404.0,372.3 428.6,376.6 453.1,364.2 477.7,360.4 502.3,365.9 526.9,364.2 551.4,366.8 576.0,366.2 600.6,369.8 625.1,363.9 649.7,354.0 674.3,358.7 698.9,361.9 723.4,360.8 748.0,366.6 772.6,374.1 797.1,365.8 821.7,370.8 846.3,356.6 870.9,340.7 895.4,343.6 920.0,289.5"/>
<rect x="730" y="68" width="12" height="12" fill="#c2410c"/>
<text x="748" y="78" font-family="monospace" font-size="12" fill="#111">attack</text>
<polyline fill="none" stroke="#166534" stroke-width="2" points="60.0,362.2 84.6,361.7 109.1,361.9 133.7,361.3 158.3,362.3 182.9,362.5 207.4,362.0 232.0,363.8 256.6,360.4 281.1,361.0 305.7,364.0 330.3,362.0 354.9,360.9 379.4,356.6 404.0,357.9 428.6,357.3 453.1,363.1 477.7,364.7 502.3,364.3 526.9,361.9 551.4,358.9 576.0,361.4 600.6,354.3 625.1,350.8 649.7,291.3 674.3,308.1 698.9,306.0 723.4,310.3 748.0,313.5 772.6,211.5 797.1,231.8 821.7,176.3 846.3,189.2 870.9,198.0 895.4,241.0 920.0,155.9"/>
<rect x="730" y="88" width="12" height="12" fill="#166534"/>
<text x="748" y="98" font-family="monospace" font-size="12" fill="#111">base-attack</text>
</svg>