<svg xmlns="http://www.w3.org/2000/svg" width="614" height="284" viewBox="0 0 614 284">
<rect width="100%" height="100%" fill="#fbfbf8"/>
<text x="24" y="32" font-family="monospace" font-size="18" fill="#111">Module 4: cross-layer subspace similarity by attack</text>
<text x="126" y="74" font-family="monospace" font-size="10" fill="#333" transform="rotate(-35 126,74)">Doubt</text>
<text x="200" y="74" font-family="monospace" font-size="10" fill="#333" transform="rotate(-35 200,74)">Trap</text>
<text x="274" y="74" font-family="monospace" font-size="10" fill="#333" transform="rotate(-35 274,74)">Authority</text>
<text x="348" y="74" font-family="monospace" font-size="10" fill="#333" transform="rotate(-35 348,74)">Gaslighting</text>
<text x="422" y="74" font-family="monospace" font-size="10" fill="#333" transform="rotate(-35 422,74)">Majority</text>
<text x="496" y="74" font-family="monospace" font-size="10" fill="#333" transform="rotate(-35 496,74)">Emotional</text>
<text x="18" y="128" font-family="monospace" font-size="12" fill="#333">24</text>
<text x="18" y="202" font-family="monospace" font-size="12" fill="#333">35</text>
<rect x="120" y="86" width="72" height="72" fill="rgb(227,232,205)" stroke="#fff"/>
<text x="133" y="126" font-family="monospace" font-size="12" fill="#111">0.186</text>
<rect x="194" y="86" width="72" height="72" fill="rgb(224,230,202)" stroke="#fff"/>
<text x="207" y="126" font-family="monospace" font-size="12" fill="#111">0.204</text>
<rect x="268" y="86" width="72" height="72" fill="rgb(227,232,205)" stroke="#fff"/>
<text x="281" y="126" font-family="monospace" font-size="12" fill="#111">0.184</text>
<rect x="342" y="86" width="72" height="72" fill="rgb(226,231,204)" stroke="#fff"/>
<text x="355" y="126" font-family="monospace" font-size="12" fill="#111">0.190</text>
<rect x="416" y="86" width="72" height="72" fill="rgb(224,230,201)" stroke="#fff"/>
<text x="429" y="126" font-family="monospace" font-size="12" fill="#111">0.207</text>
<rect x="490" y="86" width="72" height="72" fill="rgb(227,232,206)" stroke="#fff"/>
<text x="503" y="126" font-family="monospace" font-size="12" fill="#111">0.181</text>
<rect x="120" y="160" width="72" height="72" fill="rgb(227,232,205)" stroke="#fff"/>
<text x="133" y="200" font-family="monospace" font-size="12" fill="#111">0.186</text>
<rect x="194" y="160" width="72" height="72" fill="rgb(224,230,202)" stroke="#fff"/>
<text x="207" y="200" font-family="monospace" font-size="12" fill="#111">0.204</text>
<rect x="268" y="160" width="72" height="72" fill="rgb(227,232,205)" stroke="#fff"/>
<text x="281" y="200" font-family="monospace" font-size="12" fill="#111">0.184</text>
<rect x="342" y="160" width="72" height="72" fill="rgb(226,231,204)" stroke="#fff"/>
<text x="355" y="200" font-family="monospace" font-size="12" fill="#111">0.190</text>
<rect x="416" y="160" width="72" height="72" fill="rgb(224,230,201)" stroke="#fff"/>
<text x="429" y="200" font-family="monospace" font-size="12" fill="#111">0.207</text>
<rect x="490" y="160" width="72" height="72" fill="rgb(227,232,206)" stroke="#fff"/>
<text x="503" y="200" font-family="monospace" font-size="12" fill="#111">0.181</text>
</svg>