<svg xmlns="http://www.w3.org/2000/svg" width="980" height="460" viewBox="0 0 980 460">
<rect width="100%" height="100%" fill="#fbfbf8"/>
<text x="60" y="32" font-family="monospace" font-size="20" fill="#111">Module 2: intervention pre/post attack margin</text>
<text x="60" y="442" font-family="monospace" font-size="12" fill="#444">layer</text>
<text x="16" y="60" font-family="monospace" font-size="12" fill="#444">margin</text>
<line x1="60" y1="400" x2="920" y2="400" stroke="#333"/>
<line x1="60" y1="60" x2="60" y2="400" stroke="#333"/>
<line x1="60" y1="329.4797943774367" x2="920" y2="329.4797943774367" stroke="#999" stroke-dasharray="4 4"/>
<text x="54.0" y="418" font-family="monospace" font-size="10" fill="#444">0</text>
<text x="127.71428571428572" y="418" font-family="monospace" font-size="10" fill="#444">3</text>
<text x="201.42857142857142" y="418" font-family="monospace" font-size="10" fill="#444">6</text>
<text x="275.1428571428571" y="418" font-family="monospace" font-size="10" fill="#444">9</text>
<text x="348.85714285714283" y="418" font-family="monospace" font-size="10" fill="#444">12</text>
<text x="422.57142857142856" y="418" font-family="monospace" font-size="10" fill="#444">15</text>
<text x="496.2857142857143" y="418" font-family="monospace" font-size="10" fill="#444">18</text>
<text x="570.0" y="418" font-family="monospace" font-size="10" fill="#444">21</text>
<text x="643.7142857142857" y="418" font-family="monospace" font-size="10" fill="#444">24</text>
<text x="717.4285714285714" y="418" font-family="monospace" font-size="10" fill="#444">27</text>
<text x="791.1428571428571" y="418" font-family="monospace" font-size="10" fill="#444">30</text>
<text x="864.8571428571429" y="418" font-family="monospace" font-size="10" fill="#444">33</text>
<polyline fill="none" stroke="#175e8a" stroke-width="2" points="60.0,325.3 84.6,304.7 109.1,306.5 133.7,302.8 158.3,322.0 182.9,325.2 207.4,330.5 232.0,325.8 256.6,322.3 281.1,331.2 305.7,323.2 330.3,343.4 354.9,350.4 379.4,354.5 404.0,362.8 428.6,376.6 453.1,336.6 477.7,324.3 502.3,341.9 526.9,336.5 551.4,344.9 576.0,343.1 600.6,354.6 625.1,335.5 649.7,303.4 674.3,318.8 698.9,329.0 723.4,325.5 748.0,344.2 772.6,368.5 797.1,341.8 821.7,358.1 846.3,312.0 870.9,260.4 895.4,269.7 920.0,94.8"/>
<rect x="730" y="48" width="12" height="12" fill="#175e8a"/>
<text x="748" y="58" font-family="monospace" font-size="12" fill="#111">baseline attack</text>
<polyline fill="none" stroke="#c2410c" stroke-width="2" points="60.0,325.3 84.6,304.7 109.1,306.5 133.7,302.8 158.3,322.0 182.9,325.2 207.4,330.5 232.0,325.8 256.6,322.3 281.1,331.2 305.7,323.2 330.3,343.4 354.9,350.4 379.4,354.5 404.0,362.8 428.6,376.6 453.1,336.6 477.7,324.3 502.3,341.9 526.9,336.5 551.4,344.9 576.0,343.1 600.6,354.6 625.1,335.5 649.7,303.4 674.3,316.3 698.9,327.2 723.4,323.7 748.0,344.0 772.6,373.2 797.1,347.2 821.7,364.3 846.3,312.5 870.9,261.2 895.4,269.2 920.0,83.4"/>
<rect x="730" y="68" width="12" height="12" fill="#c2410c"/>
<text x="748" y="78" font-family="monospace" font-size="12" fill="#111">intervened attack</text>
<polyline fill="none" stroke="#166534" stroke-width="2" points="60.0,329.5 84.6,329.5 109.1,329.5 133.7,329.5 158.3,329.5 182.9,329.5 207.4,329.5 232.0,329.5 256.6,329.5 281.1,329.5 305.7,329.5 330.3,329.5 354.9,329.5 379.4,329.5 404.0,329.5 428.6,329.5 453.1,329.5 477.7,329.5 502.3,329.5 526.9,329.5 551.4,329.5 576.0,329.5 600.6,329.5 625.1,329.5 649.7,329.5 674.3,327.0 698.9,327.6 723.4,327.7 748.0,329.2 772.6,334.2 797.1,334.9 821.7,335.7 846.3,330.0 870.9,330.3 895.4,328.9 920.0,318.2"/>
<rect x="730" y="88" width="12" height="12" fill="#166534"/>
<text x="748" y="98" font-family="monospace" font-size="12" fill="#111">delta</text>
</svg>