<svg xmlns="http://www.w3.org/2000/svg" width="980" height="460" viewBox="0 0 980 460">
<rect width="100%" height="100%" fill="#fbfbf8"/>
<text x="60" y="32" font-family="monospace" font-size="20" fill="#111">Readout alignment by attack type</text>
<text x="60" y="442" font-family="monospace" font-size="12" fill="#444">layer</text>
<text x="16" y="60" font-family="monospace" font-size="12" fill="#444">cosine</text>
<line x1="60" y1="400" x2="920" y2="400" stroke="#333"/>
<line x1="60" y1="60" x2="60" y2="400" stroke="#333"/>
<line x1="60" y1="363.2038554035901" x2="920" y2="363.2038554035901" stroke="#999" stroke-dasharray="4 4"/>
<text x="54.0" y="418" font-family="monospace" font-size="10" fill="#444">0</text>
<text x="127.71428571428572" y="418" font-family="monospace" font-size="10" fill="#444">3</text>
<text x="201.42857142857142" y="418" font-family="monospace" font-size="10" fill="#444">6</text>
<text x="275.1428571428571" y="418" font-family="monospace" font-size="10" fill="#444">9</text>
<text x="348.85714285714283" y="418" font-family="monospace" font-size="10" fill="#444">12</text>
<text x="422.57142857142856" y="418" font-family="monospace" font-size="10" fill="#444">15</text>
<text x="496.2857142857143" y="418" font-family="monospace" font-size="10" fill="#444">18</text>
<text x="570.0" y="418" font-family="monospace" font-size="10" fill="#444">21</text>
<text x="643.7142857142857" y="418" font-family="monospace" font-size="10" fill="#444">24</text>
<text x="717.4285714285714" y="418" font-family="monospace" font-size="10" fill="#444">27</text>
<text x="791.1428571428571" y="418" font-family="monospace" font-size="10" fill="#444">30</text>
<text x="864.8571428571429" y="418" font-family="monospace" font-size="10" fill="#444">33</text>
<polyline fill="none" stroke="#175e8a" stroke-width="2" points="60.0,363.8 84.6,361.6 109.1,361.5 133.7,360.7 158.3,363.9 182.9,364.4 207.4,363.8 232.0,366.9 256.6,360.6 281.1,360.7 305.7,365.1 330.3,362.6 354.9,361.6 379.4,355.9 404.0,358.0 428.6,358.3 453.1,363.9 477.7,366.0 502.3,365.4 526.9,364.1 551.4,360.5 576.0,363.4 600.6,358.7 625.1,357.9 649.7,328.2 674.3,336.2 698.9,335.2 723.4,337.8 748.0,340.5 772.6,306.1 797.1,314.7 821.7,288.7 846.3,301.3 870.9,308.1 895.4,338.3 920.0,376.6"/>
<rect x="730" y="48" width="12" height="12" fill="#175e8a"/>
<text x="748" y="58" font-family="monospace" font-size="12" fill="#111">Doubt</text>
<polyline fill="none" stroke="#c2410c" stroke-width="2" points="60.0,363.1 84.6,361.5 109.1,361.4 133.7,360.7 158.3,364.7 182.9,364.5 207.4,362.6 232.0,366.6 256.6,360.7 281.1,361.2 305.7,365.9 330.3,362.8 354.9,361.2 379.4,356.5 404.0,357.6 428.6,357.9 453.1,363.5 477.7,365.6 502.3,364.9 526.9,363.4 551.4,360.2 576.0,362.2 600.6,356.8 625.1,358.1 649.7,339.0 674.3,348.2 698.9,348.0 723.4,350.0 748.0,353.9 772.6,285.3 797.1,295.6 821.7,281.3 846.3,300.7 870.9,311.8 895.4,344.2 920.0,361.9"/>
<rect x="730" y="68" width="12" height="12" fill="#c2410c"/>
<text x="748" y="78" font-family="monospace" font-size="12" fill="#111">Trap</text>
<polyline fill="none" stroke="#166534" stroke-width="2" points="60.0,362.4 84.6,360.6 109.1,361.5 133.7,359.6 158.3,364.0 182.9,364.1 207.4,362.3 232.0,365.9 256.6,360.3 281.1,361.5 305.7,366.4 330.3,362.8 354.9,361.6 379.4,357.4 404.0,358.5 428.6,359.3 453.1,363.8 477.7,366.3 502.3,364.8 526.9,362.2 551.4,359.7 576.0,359.5 600.6,354.8 625.1,351.8 649.7,280.2 674.3,288.8 698.9,283.0 723.4,286.9 748.0,288.7 772.6,184.0 797.1,203.9 821.7,117.3 846.3,121.0 870.9,107.7 895.4,124.9 920.0,103.2"/>
<rect x="730" y="88" width="12" height="12" fill="#166534"/>
<text x="748" y="98" font-family="monospace" font-size="12" fill="#111">Authority</text>
<polyline fill="none" stroke="#7c3aed" stroke-width="2" points="60.0,364.6 84.6,361.4 109.1,362.9 133.7,360.9 158.3,363.9 182.9,364.3 207.4,362.3 232.0,365.8 256.6,360.8 281.1,361.0 305.7,364.3 330.3,361.8 354.9,359.9 379.4,356.7 404.0,358.4 428.6,359.2 453.1,364.9 477.7,365.5 502.3,365.2 526.9,364.1 551.4,361.8 576.0,364.2 600.6,358.7 625.1,357.9 649.7,330.0 674.3,338.4 698.9,336.3 723.4,338.0 748.0,341.1 772.6,238.2 797.1,248.5 821.7,220.9 846.3,208.7 870.9,215.4 895.4,247.7 920.0,238.7"/>
<rect x="730" y="108" width="12" height="12" fill="#7c3aed"/>
<text x="748" y="118" font-family="monospace" font-size="12" fill="#111">Gaslighting</text>
<polyline fill="none" stroke="#b45309" stroke-width="2" points="60.0,368.1 84.6,362.9 109.1,364.4 133.7,361.7 158.3,364.4 182.9,365.1 207.4,364.1 232.0,366.4 256.6,361.3 281.1,362.6 305.7,367.0 330.3,363.4 354.9,361.2 379.4,357.0 404.0,358.8 428.6,359.3 453.1,363.6 477.7,365.4 502.3,366.1 526.9,361.9 551.4,362.1 576.0,358.9 600.6,355.1 625.1,350.7 649.7,277.6 674.3,287.0 698.9,279.5 723.4,282.8 748.0,284.0 772.6,176.2 797.1,197.7 821.7,104.4 846.3,101.7 870.9,84.2 895.4,100.9 920.0,83.4"/>
<rect x="730" y="128" width="12" height="12" fill="#b45309"/>
<text x="748" y="138" font-family="monospace" font-size="12" fill="#111">Majority</text>
<polyline fill="none" stroke="#175e8a" stroke-width="2" points="60.0,362.0 84.6,359.4 109.1,360.8 133.7,360.1 158.3,363.1 182.9,363.7 207.4,362.5 232.0,365.8 256.6,360.6 281.1,361.9 305.7,367.0 330.3,364.1 354.9,361.8 379.4,357.5 404.0,359.2 428.6,360.1 453.1,363.4 477.7,364.4 502.3,363.2 526.9,361.6 551.4,359.2 576.0,362.6 600.6,357.0 625.1,354.5 649.7,335.6 674.3,340.6 698.9,339.5 723.4,341.3 748.0,344.9 772.6,281.5 797.1,292.2 821.7,271.5 846.3,277.8 870.9,281.0 895.4,320.0 920.0,345.9"/>
<rect x="730" y="148" width="12" height="12" fill="#175e8a"/>
<text x="748" y="158" font-family="monospace" font-size="12" fill="#111">Emotional</text>
</svg>