<svg xmlns="http://www.w3.org/2000/svg" width="980" height="460" viewBox="0 0 980 460">
<rect width="100%" height="100%" fill="#fbfbf8"/>
<text x="60" y="32" font-family="monospace" font-size="20" fill="#111">Projection strength by attack type</text>
<text x="60" y="442" font-family="monospace" font-size="12" fill="#444">layer</text>
<text x="16" y="60" font-family="monospace" font-size="12" fill="#444">projection</text>
<line x1="60" y1="400" x2="920" y2="400" stroke="#333"/>
<line x1="60" y1="60" x2="60" y2="400" stroke="#333"/>
<line x1="60" y1="371.91533474478376" x2="920" y2="371.91533474478376" stroke="#999" stroke-dasharray="4 4"/>
<text x="54.0" y="418" font-family="monospace" font-size="10" fill="#444">0</text>
<text x="127.71428571428572" y="418" font-family="monospace" font-size="10" fill="#444">3</text>
<text x="201.42857142857142" y="418" font-family="monospace" font-size="10" fill="#444">6</text>
<text x="275.1428571428571" y="418" font-family="monospace" font-size="10" fill="#444">9</text>
<text x="348.85714285714283" y="418" font-family="monospace" font-size="10" fill="#444">12</text>
<text x="422.57142857142856" y="418" font-family="monospace" font-size="10" fill="#444">15</text>
<text x="496.2857142857143" y="418" font-family="monospace" font-size="10" fill="#444">18</text>
<text x="570.0" y="418" font-family="monospace" font-size="10" fill="#444">21</text>
<text x="643.7142857142857" y="418" font-family="monospace" font-size="10" fill="#444">24</text>
<text x="717.4285714285714" y="418" font-family="monospace" font-size="10" fill="#444">27</text>
<text x="791.1428571428571" y="418" font-family="monospace" font-size="10" fill="#444">30</text>
<text x="864.8571428571429" y="418" font-family="monospace" font-size="10" fill="#444">33</text>
<polyline fill="none" stroke="#175e8a" stroke-width="2" points="60.0,371.9 84.6,371.9 109.1,371.9 133.7,371.9 158.3,371.9 182.9,371.9 207.4,371.9 232.0,372.0 256.6,371.8 281.1,371.8 305.7,372.0 330.3,371.9 354.9,371.8 379.4,371.5 404.0,371.6 428.6,371.5 453.1,372.0 477.7,372.1 502.3,372.1 526.9,372.0 551.4,371.5 576.0,372.0 600.6,371.2 625.1,370.8 649.7,363.6 674.3,364.6 698.9,363.4 723.4,363.4 748.0,363.5 772.6,349.2 797.1,350.1 821.7,334.7 846.3,336.9 870.9,335.9 895.4,352.0 920.0,376.6"/>
<rect x="730" y="48" width="12" height="12" fill="#175e8a"/>
<text x="748" y="58" font-family="monospace" font-size="12" fill="#111">Doubt</text>
<polyline fill="none" stroke="#c2410c" stroke-width="2" points="60.0,371.9 84.6,371.9 109.1,371.9 133.7,371.9 158.3,371.9 182.9,371.9 207.4,371.9 232.0,372.0 256.6,371.8 281.1,371.8 305.7,372.0 330.3,371.9 354.9,371.8 379.4,371.6 404.0,371.6 428.6,371.5 453.1,371.9 477.7,372.1 502.3,372.1 526.9,371.9 551.4,371.5 576.0,371.8 600.6,370.9 625.1,370.9 649.7,366.3 674.3,367.9 698.9,367.4 723.4,367.5 748.0,368.4 772.6,341.9 797.1,342.4 821.7,330.9 846.3,336.1 870.9,337.1 895.4,353.8 920.0,368.3"/>
<rect x="730" y="68" width="12" height="12" fill="#c2410c"/>
<text x="748" y="78" font-family="monospace" font-size="12" fill="#111">Trap</text>
<polyline fill="none" stroke="#166534" stroke-width="2" points="60.0,371.9 84.6,371.9 109.1,371.9 133.7,371.9 158.3,371.9 182.9,371.9 207.4,371.9 232.0,372.0 256.6,371.8 281.1,371.8 305.7,372.0 330.3,371.9 354.9,371.8 379.4,371.6 404.0,371.6 428.6,371.6 453.1,372.0 477.7,372.2 502.3,372.1 526.9,371.8 551.4,371.4 576.0,371.3 600.6,370.4 625.1,369.3 649.7,347.3 674.3,347.8 698.9,343.0 723.4,341.8 748.0,339.0 772.6,279.0 797.1,274.0 821.7,201.4 846.3,185.5 870.9,147.8 895.4,120.2 920.0,224.2"/>
<rect x="730" y="88" width="12" height="12" fill="#166534"/>
<text x="748" y="98" font-family="monospace" font-size="12" fill="#111">Authority</text>
<polyline fill="none" stroke="#7c3aed" stroke-width="2" points="60.0,371.9 84.6,371.9 109.1,371.9 133.7,371.9 158.3,371.9 182.9,371.9 207.4,371.9 232.0,372.0 256.6,371.8 281.1,371.8 305.7,372.0 330.3,371.9 354.9,371.8 379.4,371.6 404.0,371.6 428.6,371.6 453.1,372.0 477.7,372.1 502.3,372.1 526.9,372.0 551.4,371.7 576.0,372.1 600.6,371.1 625.1,370.8 649.7,363.6 674.3,365.2 698.9,363.9 723.4,363.6 748.0,363.8 772.6,321.1 797.1,318.3 821.7,295.7 846.3,276.8 870.9,265.6 895.4,272.0 920.0,308.4"/>
<rect x="730" y="108" width="12" height="12" fill="#7c3aed"/>
<text x="748" y="118" font-family="monospace" font-size="12" fill="#111">Gaslighting</text>
<polyline fill="none" stroke="#b45309" stroke-width="2" points="60.0,371.9 84.6,371.9 109.1,371.9 133.7,371.9 158.3,371.9 182.9,371.9 207.4,371.9 232.0,372.0 256.6,371.8 281.1,371.9 305.7,372.1 330.3,371.9 354.9,371.8 379.4,371.6 404.0,371.6 428.6,371.6 453.1,371.9 477.7,372.1 502.3,372.2 526.9,371.7 551.4,371.8 576.0,371.1 600.6,370.3 625.1,368.9 649.7,346.0 674.3,346.8 698.9,340.8 723.4,339.1 748.0,335.7 772.6,272.3 797.1,265.7 821.7,183.3 846.3,161.5 870.9,117.2 895.4,83.4 920.0,205.6"/>
<rect x="730" y="128" width="12" height="12" fill="#b45309"/>
<text x="748" y="138" font-family="monospace" font-size="12" fill="#111">Majority</text>
<polyline fill="none" stroke="#175e8a" stroke-width="2" points="60.0,371.9 84.6,371.9 109.1,371.9 133.7,371.9 158.3,371.9 182.9,371.9 207.4,371.9 232.0,372.0 256.6,371.8 281.1,371.9 305.7,372.1 330.3,372.0 354.9,371.9 379.4,371.6 404.0,371.7 428.6,371.7 453.1,371.9 477.7,372.0 502.3,371.9 526.9,371.7 551.4,371.3 576.0,371.8 600.6,370.8 625.1,370.1 649.7,365.1 674.3,365.6 698.9,364.6 723.4,364.4 748.0,364.9 772.6,338.9 797.1,339.2 821.7,323.9 846.3,321.9 870.9,316.9 895.4,335.4 920.0,361.0"/>
<rect x="730" y="148" width="12" height="12" fill="#175e8a"/>
<text x="748" y="158" font-family="monospace" font-size="12" fill="#111">Emotional</text>
</svg>