<svg xmlns="http://www.w3.org/2000/svg" width="980" height="460" viewBox="0 0 980 460">
<rect width="100%" height="100%" fill="#fbfbf8"/>
<text x="60" y="32" font-family="monospace" font-size="20" fill="#111">Readout alignment: mean cosine(d_syco, d_logit)</text>
<text x="60" y="442" font-family="monospace" font-size="12" fill="#444">layer</text>
<text x="16" y="60" font-family="monospace" font-size="12" fill="#444">cosine</text>
<line x1="60" y1="400" x2="920" y2="400" stroke="#333"/>
<line x1="60" y1="60" x2="60" y2="400" stroke="#333"/>
<line x1="60" y1="370.7405338163015" x2="920" y2="370.7405338163015" stroke="#999" stroke-dasharray="4 4"/>
<text x="54.0" y="418" font-family="monospace" font-size="10" fill="#444">0</text>
<text x="127.71428571428572" y="418" font-family="monospace" font-size="10" fill="#444">3</text>
<text x="201.42857142857142" y="418" font-family="monospace" font-size="10" fill="#444">6</text>
<text x="275.1428571428571" y="418" font-family="monospace" font-size="10" fill="#444">9</text>
<text x="348.85714285714283" y="418" font-family="monospace" font-size="10" fill="#444">12</text>
<text x="422.57142857142856" y="418" font-family="monospace" font-size="10" fill="#444">15</text>
<text x="496.2857142857143" y="418" font-family="monospace" font-size="10" fill="#444">18</text>
<text x="570.0" y="418" font-family="monospace" font-size="10" fill="#444">21</text>
<text x="643.7142857142857" y="418" font-family="monospace" font-size="10" fill="#444">24</text>
<text x="717.4285714285714" y="418" font-family="monospace" font-size="10" fill="#444">27</text>
<text x="791.1428571428571" y="418" font-family="monospace" font-size="10" fill="#444">30</text>
<text x="864.8571428571429" y="418" font-family="monospace" font-size="10" fill="#444">33</text>
<polyline fill="none" stroke="#175e8a" stroke-width="2" points="60.0,372.3 84.6,366.9 109.1,368.6 133.7,365.7 158.3,372.3 182.9,372.9 207.4,370.2 232.0,376.6 256.6,366.0 281.1,367.4 305.7,376.0 330.3,370.2 354.9,367.0 379.4,358.5 404.0,361.5 428.6,362.7 453.1,372.0 477.7,375.2 502.3,374.1 526.9,370.1 551.4,365.7 576.0,368.0 600.6,358.5 625.1,355.3 649.7,278.1 674.3,293.7 698.9,288.0 723.4,292.9 748.0,298.2 772.6,143.6 797.1,169.6 821.7,83.4 846.3,92.1 870.9,91.2 895.4,145.0 920.0,155.9"/>
<rect x="730" y="48" width="12" height="12" fill="#175e8a"/>
<text x="748" y="58" font-family="monospace" font-size="12" fill="#111">overall</text>
</svg>