<svg xmlns="http://www.w3.org/2000/svg" width="980" height="460" viewBox="0 0 980 460">
<rect width="100%" height="100%" fill="#fbfbf8"/>
<text x="60" y="32" font-family="monospace" font-size="20" fill="#111">Module 2: intervention pre/post attack margin</text>
<text x="60" y="442" font-family="monospace" font-size="12" fill="#444">layer</text>
<text x="16" y="60" font-family="monospace" font-size="12" fill="#444">margin</text>
<line x1="60" y1="400" x2="920" y2="400" stroke="#333"/>
<line x1="60" y1="60" x2="60" y2="400" stroke="#333"/>
<line x1="60" y1="138.8287776606311" x2="920" y2="138.8287776606311" stroke="#999" stroke-dasharray="4 4"/>
<text x="54.0" y="418" font-family="monospace" font-size="10" fill="#444">0</text>
<text x="127.71428571428572" y="418" font-family="monospace" font-size="10" fill="#444">3</text>
<text x="201.42857142857142" y="418" font-family="monospace" font-size="10" fill="#444">6</text>
<text x="275.1428571428571" y="418" font-family="monospace" font-size="10" fill="#444">9</text>
<text x="348.85714285714283" y="418" font-family="monospace" font-size="10" fill="#444">12</text>
<text x="422.57142857142856" y="418" font-family="monospace" font-size="10" fill="#444">15</text>
<text x="496.2857142857143" y="418" font-family="monospace" font-size="10" fill="#444">18</text>
<text x="570.0" y="418" font-family="monospace" font-size="10" fill="#444">21</text>
<text x="643.7142857142857" y="418" font-family="monospace" font-size="10" fill="#444">24</text>
<text x="717.4285714285714" y="418" font-family="monospace" font-size="10" fill="#444">27</text>
<text x="791.1428571428571" y="418" font-family="monospace" font-size="10" fill="#444">30</text>
<text x="864.8571428571429" y="418" font-family="monospace" font-size="10" fill="#444">33</text>
<polyline fill="none" stroke="#175e8a" stroke-width="2" points="60.0,136.0 84.6,117.3 109.1,117.3 133.7,113.4 158.3,128.9 182.9,131.7 207.4,133.2 232.0,125.0 256.6,131.8 281.1,137.1 305.7,127.0 330.3,150.7 354.9,150.9 379.4,154.7 404.0,162.3 428.6,179.3 453.1,146.3 477.7,137.1 502.3,149.2 526.9,145.7 551.4,153.3 576.0,149.8 600.6,160.2 625.1,143.6 649.7,221.5 674.3,217.1 698.9,221.6 723.4,213.7 748.0,223.0 772.6,332.3 797.1,303.8 821.7,376.6 846.3,346.9 870.9,300.3 895.4,276.0 920.0,366.3"/>
<rect x="730" y="48" width="12" height="12" fill="#175e8a"/>
<text x="748" y="58" font-family="monospace" font-size="12" fill="#111">baseline attack</text>
<polyline fill="none" stroke="#c2410c" stroke-width="2" points="60.0,136.0 84.6,117.3 109.1,117.3 133.7,113.4 158.3,128.9 182.9,131.7 207.4,133.2 232.0,125.0 256.6,131.8 281.1,137.1 305.7,127.0 330.3,150.7 354.9,150.9 379.4,154.7 404.0,162.3 428.6,179.3 453.1,146.3 477.7,137.1 502.3,149.2 526.9,145.7 551.4,153.3 576.0,149.8 600.6,160.2 625.1,143.6 649.7,221.5 674.3,217.1 698.9,221.6 723.4,213.7 748.0,223.0 772.6,332.3 797.1,303.8 821.7,376.6 846.3,346.9 870.9,300.3 895.4,287.3 920.0,310.9"/>
<rect x="730" y="68" width="12" height="12" fill="#c2410c"/>
<text x="748" y="78" font-family="monospace" font-size="12" fill="#111">intervened attack</text>
<polyline fill="none" stroke="#166534" stroke-width="2" points="60.0,138.8 84.6,138.8 109.1,138.8 133.7,138.8 158.3,138.8 182.9,138.8 207.4,138.8 232.0,138.8 256.6,138.8 281.1,138.8 305.7,138.8 330.3,138.8 354.9,138.8 379.4,138.8 404.0,138.8 428.6,138.8 453.1,138.8 477.7,138.8 502.3,138.8 526.9,138.8 551.4,138.8 576.0,138.8 600.6,138.8 625.1,138.8 649.7,138.8 674.3,138.8 698.9,138.8 723.4,138.8 748.0,138.8 772.6,138.8 797.1,138.8 821.7,138.8 846.3,138.8 870.9,138.8 895.4,150.1 920.0,83.4"/>
<rect x="730" y="88" width="12" height="12" fill="#166534"/>
<text x="748" y="98" font-family="monospace" font-size="12" fill="#111">delta</text>
</svg>