<svg xmlns="http://www.w3.org/2000/svg" width="980" height="460" viewBox="0 0 980 460">
<rect width="100%" height="100%" fill="#fbfbf8"/>
<text x="60" y="32" font-family="monospace" font-size="20" fill="#111">Module 1: layer-wise correct-vs-wrong margin</text>
<text x="60" y="442" font-family="monospace" font-size="12" fill="#444">layer</text>
<text x="16" y="60" font-family="monospace" font-size="12" fill="#444">margin</text>
<line x1="60" y1="400" x2="920" y2="400" stroke="#333"/>
<line x1="60" y1="60" x2="60" y2="400" stroke="#333"/>
<line x1="60" y1="298.06508181722234" x2="920" y2="298.06508181722234" stroke="#999" stroke-dasharray="4 4"/>
<text x="54.0" y="418" font-family="monospace" font-size="10" fill="#444">0</text>
<text x="127.71428571428572" y="418" font-family="monospace" font-size="10" fill="#444">3</text>
<text x="201.42857142857142" y="418" font-family="monospace" font-size="10" fill="#444">6</text>
<text x="275.1428571428571" y="418" font-family="monospace" font-size="10" fill="#444">9</text>
<text x="348.85714285714283" y="418" font-family="monospace" font-size="10" fill="#444">12</text>
<text x="422.57142857142856" y="418" font-family="monospace" font-size="10" fill="#444">15</text>
<text x="496.2857142857143" y="418" font-family="monospace" font-size="10" fill="#444">18</text>
<text x="570.0" y="418" font-family="monospace" font-size="10" fill="#444">21</text>
<text x="643.7142857142857" y="418" font-family="monospace" font-size="10" fill="#444">24</text>
<text x="717.4285714285714" y="418" font-family="monospace" font-size="10" fill="#444">27</text>
<text x="791.1428571428571" y="418" font-family="monospace" font-size="10" fill="#444">30</text>
<text x="864.8571428571429" y="418" font-family="monospace" font-size="10" fill="#444">33</text>
<polyline fill="none" stroke="#175e8a" stroke-width="2" points="60.0,297.4 84.6,290.4 109.1,290.6 133.7,289.2 158.3,295.4 182.9,296.1 207.4,295.7 232.0,295.3 256.6,293.4 281.1,296.8 305.7,295.7 330.3,300.9 354.9,299.6 379.4,297.0 404.0,302.7 428.6,307.6 453.1,300.7 477.7,299.7 502.3,304.1 526.9,303.0 551.4,302.0 576.0,302.9 600.6,298.2 625.1,288.0 649.7,260.4 674.3,272.5 698.9,270.5 723.4,271.0 748.0,275.9 772.6,216.9 797.1,228.8 821.7,202.5 846.3,201.8 870.9,197.5 895.4,229.4 920.0,158.5"/>
<rect x="730" y="48" width="12" height="12" fill="#175e8a"/>
<text x="748" y="58" font-family="monospace" font-size="12" fill="#111">base</text>
<polyline fill="none" stroke="#c2410c" stroke-width="2" points="60.0,297.1 84.6,291.0 109.1,290.9 133.7,289.7 158.3,294.8 182.9,295.7 207.4,296.2 232.0,293.5 256.6,295.7 281.1,297.5 305.7,294.1 330.3,302.0 354.9,302.1 379.4,303.3 404.0,305.8 428.6,311.4 453.1,300.5 477.7,297.5 502.3,301.5 526.9,300.3 551.4,302.8 576.0,301.7 600.6,305.1 625.1,299.6 649.7,325.4 674.3,323.9 698.9,325.4 723.4,322.8 748.0,325.9 772.6,361.9 797.1,352.5 821.7,376.6 846.3,366.8 870.9,351.4 895.4,343.3 920.0,373.2"/>
<rect x="730" y="68" width="12" height="12" fill="#c2410c"/>
<text x="748" y="78" font-family="monospace" font-size="12" fill="#111">attack</text>
<polyline fill="none" stroke="#166534" stroke-width="2" points="60.0,298.3 84.6,297.4 109.1,297.8 133.7,297.6 158.3,298.7 182.9,298.5 207.4,297.6 232.0,299.9 256.6,295.8 281.1,297.3 305.7,299.6 330.3,297.0 354.9,295.6 379.4,291.8 404.0,294.9 428.6,294.2 453.1,298.3 477.7,300.3 502.3,300.6 526.9,300.8 551.4,297.2 576.0,299.3 600.6,291.2 625.1,286.5 649.7,233.1 674.3,246.6 698.9,243.2 723.4,246.2 748.0,248.1 772.6,153.1 797.1,174.4 821.7,124.0 846.3,133.1 870.9,144.2 895.4,184.1 920.0,83.4"/>
<rect x="730" y="88" width="12" height="12" fill="#166534"/>
<text x="748" y="98" font-family="monospace" font-size="12" fill="#111">base-attack</text>
</svg>