<svg xmlns="http://www.w3.org/2000/svg" width="980" height="520" viewBox="0 0 980 520">
<rect width="100%" height="100%" fill="#ffffff"/>
<text x="490.0" y="28" text-anchor="middle" font-family="sans-serif" font-size="18" font-weight="700">alpha: transition counts</text>
<text x="18" y="221.5" transform="rotate(-90 18 221.5)" text-anchor="middle" font-family="sans-serif" font-size="12">count</text>
<line x1="80" y1="58" x2="80" y2="385" stroke="#555"/>
<line x1="80" y1="228.21" x2="950" y2="228.21" stroke="#888" stroke-dasharray="4 4"/>
<text x="70" y="63" text-anchor="end" font-family="monospace" font-size="11">12.68</text>
<text x="70" y="224.2118226600985" text-anchor="end" font-family="monospace" font-size="11">0</text>
<text x="70" y="385" text-anchor="end" font-family="monospace" font-size="11">-11.68</text>
<rect x="192.00" y="228.21" width="18.04" height="26.85" fill="#175e8a"><title>L35 a0.25 r4 tw16: net_gain=-2.0000</title></rect>
<rect x="214.00" y="228.21" width="18.04" height="0.00" fill="#166534"><title>L35 a0.25 r4 tw16: wrong_to_correct=0.0000</title></rect>
<rect x="236.00" y="201.36" width="18.04" height="26.85" fill="#b91c1c"><title>L35 a0.25 r4 tw16: correct_to_wrong=2.0000</title></rect>
<text x="225.00" y="478" transform="rotate(-35 225.00 478)" text-anchor="end" font-family="sans-serif" font-size="10">L35 a0.25 r4 tw16</text>
<rect x="482.00" y="228.21" width="18.04" height="80.54" fill="#175e8a"><title>L35 a0.5 r4 tw16: net_gain=-6.0000</title></rect>
<rect x="504.00" y="228.21" width="18.04" height="0.00" fill="#166534"><title>L35 a0.5 r4 tw16: wrong_to_correct=0.0000</title></rect>
<rect x="526.00" y="147.67" width="18.04" height="80.54" fill="#b91c1c"><title>L35 a0.5 r4 tw16: correct_to_wrong=6.0000</title></rect>
<text x="515.00" y="478" transform="rotate(-35 515.00 478)" text-anchor="end" font-family="sans-serif" font-size="10">L35 a0.5 r4 tw16</text>
<rect x="772.00" y="228.21" width="18.04" height="134.24" fill="#175e8a"><title>L35 a1.0 r4 tw16: net_gain=-10.0000</title></rect>
<rect x="794.00" y="214.79" width="18.04" height="13.42" fill="#166534"><title>L35 a1.0 r4 tw16: wrong_to_correct=1.0000</title></rect>
<rect x="816.00" y="80.55" width="18.04" height="147.66" fill="#b91c1c"><title>L35 a1.0 r4 tw16: correct_to_wrong=11.0000</title></rect>
<text x="805.00" y="478" transform="rotate(-35 805.00 478)" text-anchor="end" font-family="sans-serif" font-size="10">L35 a1.0 r4 tw16</text>
<rect x="80" y="498" width="12" height="12" fill="#175e8a"/>
<text x="97" y="508" font-family="sans-serif" font-size="12">net_gain</text>
<rect x="171" y="498" width="12" height="12" fill="#166534"/>
<text x="188" y="508" font-family="sans-serif" font-size="12">wrong_to_correct</text>
<rect x="318" y="498" width="12" height="12" fill="#b91c1c"/>
<text x="335" y="508" font-family="sans-serif" font-size="12">correct_to_wrong</text>
</svg>