<svg xmlns="http://www.w3.org/2000/svg" width="980" height="520" viewBox="0 0 980 520">
<rect width="100%" height="100%" fill="#ffffff"/>
<text x="490.0" y="28" text-anchor="middle" font-family="sans-serif" font-size="18" font-weight="700">layers: mean delta margin</text>
<text x="18" y="221.5" transform="rotate(-90 18 221.5)" text-anchor="middle" font-family="sans-serif" font-size="12">logit margin</text>
<line x1="80" y1="58" x2="80" y2="385" stroke="#555"/>
<line x1="80" y1="81.19" x2="950" y2="81.19" stroke="#888" stroke-dasharray="4 4"/>
<text x="70" y="63" text-anchor="end" font-family="monospace" font-size="11">0.36</text>
<text x="70" y="77.1904379025878" text-anchor="end" font-family="monospace" font-size="11">0</text>
<text x="70" y="385" text-anchor="end" font-family="monospace" font-size="11">-4.71</text>
<rect x="177.75" y="80.55" width="18.04" height="0.64" fill="#7c3aed"><title>L35 a1.0 r4 tw16: mean_delta_margin=0.0099</title></rect>
<text x="188.75" y="478" transform="rotate(-35 188.75 478)" text-anchor="end" font-family="sans-serif" font-size="10">L35 a1.0 r4 tw16</text>
<rect x="395.25" y="81.19" width="18.04" height="202.32" fill="#7c3aed"><title>L33 a1.0 r4 tw16: mean_delta_margin=-3.1358</title></rect>
<text x="406.25" y="478" transform="rotate(-35 406.25 478)" text-anchor="end" font-family="sans-serif" font-size="10">L33 a1.0 r4 tw16</text>
<rect x="612.75" y="81.19" width="18.04" height="281.26" fill="#7c3aed"><title>L31-32-33 a1.0 r4 tw16: mean_delta_margin=-4.3593</title></rect>
<text x="623.75" y="478" transform="rotate(-35 623.75 478)" text-anchor="end" font-family="sans-serif" font-size="10">L31-32-33 a1.0 r4 tw16</text>
<rect x="830.25" y="81.19" width="18.04" height="273.31" fill="#7c3aed"><title>L33-34-35 a1.0 r4 tw16: mean_delta_margin=-4.2361</title></rect>
<text x="841.25" y="478" transform="rotate(-35 841.25 478)" text-anchor="end" font-family="sans-serif" font-size="10">L33-34-35 a1.0 r4 tw16</text>
<rect x="80" y="498" width="12" height="12" fill="#7c3aed"/>
<text x="97" y="508" font-family="sans-serif" font-size="12">mean_delta_margin</text>
</svg>