<svg xmlns="http://www.w3.org/2000/svg" width="980" height="520" viewBox="0 0 980 520">
<rect width="100%" height="100%" fill="#ffffff"/>
<text x="490.0" y="28" text-anchor="middle" font-family="sans-serif" font-size="18" font-weight="700">token_window: baseline vs ARA flip rate</text>
<text x="18" y="221.5" transform="rotate(-90 18 221.5)" text-anchor="middle" font-family="sans-serif" font-size="12">flip rate</text>
<line x1="80" y1="58" x2="80" y2="385" stroke="#555"/>
<line x1="80" y1="362.45" x2="950" y2="362.45" stroke="#888" stroke-dasharray="4 4"/>
<text x="70" y="63" text-anchor="end" font-family="monospace" font-size="11">0.44</text>
<text x="70" y="358.448275862069" text-anchor="end" font-family="monospace" font-size="11">0</text>
<text x="70" y="385" text-anchor="end" font-family="monospace" font-size="11">-0.03</text>
<rect x="203.00" y="81.13" width="18.04" height="281.32" fill="#525252"><title>L35 a0.25 r2 tw16: baseline_flip_rate=0.4083</title></rect>
<rect x="225.00" y="82.85" width="18.04" height="279.60" fill="#c2410c"><title>L35 a0.25 r2 tw16: ara_flip_rate=0.4058</title></rect>
<text x="225.00" y="478" transform="rotate(-35 225.00 478)" text-anchor="end" font-family="sans-serif" font-size="10">L35 a0.25 r2 tw16</text>
<rect x="493.00" y="81.13" width="18.04" height="281.32" fill="#525252"><title>L35 a0.25 r2 tw32: baseline_flip_rate=0.4083</title></rect>
<rect x="515.00" y="80.55" width="18.04" height="281.90" fill="#c2410c"><title>L35 a0.25 r2 tw32: ara_flip_rate=0.4092</title></rect>
<text x="515.00" y="478" transform="rotate(-35 515.00 478)" text-anchor="end" font-family="sans-serif" font-size="10">L35 a0.25 r2 tw32</text>
<rect x="783.00" y="81.13" width="18.04" height="281.32" fill="#525252"><title>L35 a0.25 r2 tw4: baseline_flip_rate=0.4083</title></rect>
<rect x="805.00" y="80.55" width="18.04" height="281.90" fill="#c2410c"><title>L35 a0.25 r2 tw4: ara_flip_rate=0.4092</title></rect>
<text x="805.00" y="478" transform="rotate(-35 805.00 478)" text-anchor="end" font-family="sans-serif" font-size="10">L35 a0.25 r2 tw4</text>
<rect x="80" y="498" width="12" height="12" fill="#525252"/>
<text x="97" y="508" font-family="sans-serif" font-size="12">baseline_flip_rate</text>
<rect x="241" y="498" width="12" height="12" fill="#c2410c"/>
<text x="258" y="508" font-family="sans-serif" font-size="12">ara_flip_rate</text>
</svg>