<svg xmlns="http://www.w3.org/2000/svg" width="980" height="460" viewBox="0 0 980 460">
<rect width="100%" height="100%" fill="#fbfbf8"/>
<text x="60" y="32" font-family="monospace" font-size="20" fill="#111">Module 3: attack-base representation shift</text>
<text x="60" y="442" font-family="monospace" font-size="12" fill="#444">layer</text>
<text x="16" y="60" font-family="monospace" font-size="12" fill="#444">value</text>
<line x1="60" y1="400" x2="920" y2="400" stroke="#333"/>
<line x1="60" y1="60" x2="60" y2="400" stroke="#333"/>
<line x1="60" y1="377.20334235368085" x2="920" y2="377.20334235368085" stroke="#999" stroke-dasharray="4 4"/>
<text x="54.0" y="418" font-family="monospace" font-size="10" fill="#444">0</text>
<text x="127.71428571428572" y="418" font-family="monospace" font-size="10" fill="#444">3</text>
<text x="201.42857142857142" y="418" font-family="monospace" font-size="10" fill="#444">6</text>
<text x="275.1428571428571" y="418" font-family="monospace" font-size="10" fill="#444">9</text>
<text x="348.85714285714283" y="418" font-family="monospace" font-size="10" fill="#444">12</text>
<text x="422.57142857142856" y="418" font-family="monospace" font-size="10" fill="#444">15</text>
<text x="496.2857142857143" y="418" font-family="monospace" font-size="10" fill="#444">18</text>
<text x="570.0" y="418" font-family="monospace" font-size="10" fill="#444">21</text>
<text x="643.7142857142857" y="418" font-family="monospace" font-size="10" fill="#444">24</text>
<text x="717.4285714285714" y="418" font-family="monospace" font-size="10" fill="#444">27</text>
<text x="791.1428571428571" y="418" font-family="monospace" font-size="10" fill="#444">30</text>
<text x="864.8571428571429" y="418" font-family="monospace" font-size="10" fill="#444">33</text>
<polyline fill="none" stroke="#175e8a" stroke-width="2" points="60.0,376.6 84.6,375.7 109.1,375.0 133.7,373.8 158.3,372.3 182.9,371.1 207.4,369.4 232.0,366.2 256.6,362.1 281.1,362.0 305.7,362.0 330.3,360.2 354.9,359.2 379.4,357.3 404.0,354.8 428.6,347.1 453.1,346.1 477.7,344.3 502.3,340.0 526.9,330.8 551.4,325.0 576.0,316.3 600.6,313.8 625.1,302.4 649.7,284.4 674.3,278.4 698.9,268.7 723.4,259.1 748.0,247.7 772.6,230.0 797.1,205.7 821.7,185.3 846.3,162.2 870.9,131.5 895.4,83.4 920.0,214.2"/>
<rect x="730" y="48" width="12" height="12" fill="#175e8a"/>
<text x="748" y="58" font-family="monospace" font-size="12" fill="#111">||delta h||</text>
<polyline fill="none" stroke="#c2410c" stroke-width="2" points="60.0,375.3 84.6,375.3 109.1,375.3 133.7,375.3 158.3,375.3 182.9,375.3 207.4,375.3 232.0,375.4 256.6,375.4 281.1,375.4 305.7,375.4 330.3,375.4 354.9,375.4 379.4,375.4 404.0,375.5 428.6,375.6 453.1,375.6 477.7,375.5 502.3,375.5 526.9,375.6 551.4,375.6 576.0,375.6 600.6,375.6 625.1,375.6 649.7,375.6 674.3,375.5 698.9,375.5 723.4,375.5 748.0,375.5 772.6,375.5 797.1,375.5 821.7,375.5 846.3,375.5 870.9,375.4 895.4,375.4 920.0,375.6"/>
<rect x="730" y="68" width="12" height="12" fill="#c2410c"/>
<text x="748" y="78" font-family="monospace" font-size="12" fill="#111">cosine(base,attack)</text>
</svg>