<svg xmlns="http://www.w3.org/2000/svg" width="980" height="460" viewBox="0 0 980 460">
<rect width="100%" height="100%" fill="#fbfbf8"/>
<text x="60" y="32" font-family="monospace" font-size="20" fill="#111">Module 2: intervention pre/post attack margin</text>
<text x="60" y="442" font-family="monospace" font-size="12" fill="#444">layer</text>
<text x="16" y="60" font-family="monospace" font-size="12" fill="#444">margin</text>
<line x1="60" y1="400" x2="920" y2="400" stroke="#333"/>
<line x1="60" y1="60" x2="60" y2="400" stroke="#333"/>
<line x1="60" y1="122.89141891773818" x2="920" y2="122.89141891773818" stroke="#999" stroke-dasharray="4 4"/>
<text x="54.0" y="418" font-family="monospace" font-size="10" fill="#444">0</text>
<text x="127.71428571428572" y="418" font-family="monospace" font-size="10" fill="#444">3</text>
<text x="201.42857142857142" y="418" font-family="monospace" font-size="10" fill="#444">6</text>
<text x="275.1428571428571" y="418" font-family="monospace" font-size="10" fill="#444">9</text>
<text x="348.85714285714283" y="418" font-family="monospace" font-size="10" fill="#444">12</text>
<text x="422.57142857142856" y="418" font-family="monospace" font-size="10" fill="#444">15</text>
<text x="496.2857142857143" y="418" font-family="monospace" font-size="10" fill="#444">18</text>
<text x="570.0" y="418" font-family="monospace" font-size="10" fill="#444">21</text>
<text x="643.7142857142857" y="418" font-family="monospace" font-size="10" fill="#444">24</text>
<text x="717.4285714285714" y="418" font-family="monospace" font-size="10" fill="#444">27</text>
<text x="791.1428571428571" y="418" font-family="monospace" font-size="10" fill="#444">30</text>
<text x="864.8571428571429" y="418" font-family="monospace" font-size="10" fill="#444">33</text>
<polyline fill="none" stroke="#175e8a" stroke-width="2" points="60.0,125.5 84.6,137.4 109.1,132.7 133.7,139.7 158.3,127.5 182.9,130.0 207.4,129.7 232.0,135.8 256.6,121.2 281.1,124.5 305.7,125.8 330.3,104.1 354.9,102.3 379.4,104.0 404.0,95.3 428.6,83.4 453.1,102.0 477.7,117.7 502.3,102.3 526.9,113.2 551.4,93.4 576.0,116.1 600.6,113.6 625.1,137.1 649.7,183.0 674.3,178.5 698.9,176.7 723.4,176.9 748.0,171.7 772.6,239.5 797.1,228.1 821.7,284.1 846.3,268.2 870.9,263.2 895.4,233.8 920.0,373.9"/>
<rect x="730" y="48" width="12" height="12" fill="#175e8a"/>
<text x="748" y="58" font-family="monospace" font-size="12" fill="#111">baseline attack</text>
<polyline fill="none" stroke="#c2410c" stroke-width="2" points="60.0,125.5 84.6,137.4 109.1,132.7 133.7,139.7 158.3,127.5 182.9,130.0 207.4,129.7 232.0,135.8 256.6,121.2 281.1,124.5 305.7,125.8 330.3,104.1 354.9,102.3 379.4,104.0 404.0,95.3 428.6,83.4 453.1,102.0 477.7,117.7 502.3,102.3 526.9,113.2 551.4,93.4 576.0,116.1 600.6,113.6 625.1,137.1 649.7,183.0 674.3,178.5 698.9,176.7 723.4,176.9 748.0,171.7 772.6,239.5 797.1,228.1 821.7,284.1 846.3,268.2 870.9,263.2 895.4,224.9 920.0,376.6"/>
<rect x="730" y="68" width="12" height="12" fill="#c2410c"/>
<text x="748" y="78" font-family="monospace" font-size="12" fill="#111">intervened attack</text>
<polyline fill="none" stroke="#166534" stroke-width="2" points="60.0,122.9 84.6,122.9 109.1,122.9 133.7,122.9 158.3,122.9 182.9,122.9 207.4,122.9 232.0,122.9 256.6,122.9 281.1,122.9 305.7,122.9 330.3,122.9 354.9,122.9 379.4,122.9 404.0,122.9 428.6,122.9 453.1,122.9 477.7,122.9 502.3,122.9 526.9,122.9 551.4,122.9 576.0,122.9 600.6,122.9 625.1,122.9 649.7,122.9 674.3,122.9 698.9,122.9 723.4,122.9 748.0,122.9 772.6,122.9 797.1,122.9 821.7,122.9 846.3,122.9 870.9,122.9 895.4,113.9 920.0,125.6"/>
<rect x="730" y="88" width="12" height="12" fill="#166534"/>
<text x="748" y="98" font-family="monospace" font-size="12" fill="#111">delta</text>
</svg>