<svg xmlns="http://www.w3.org/2000/svg" width="980" height="520" viewBox="0 0 980 520">
<rect width="100%" height="100%" fill="#ffffff"/>
<text x="490.0" y="28" text-anchor="middle" font-family="sans-serif" font-size="18" font-weight="700">layers: baseline vs ARA flip rate</text>
<text x="18" y="221.5" transform="rotate(-90 18 221.5)" text-anchor="middle" font-family="sans-serif" font-size="12">flip rate</text>
<line x1="80" y1="58" x2="80" y2="385" stroke="#555"/>
<line x1="80" y1="362.45" x2="950" y2="362.45" stroke="#888" stroke-dasharray="4 4"/>
<text x="70" y="63" text-anchor="end" font-family="monospace" font-size="11">0.55</text>
<text x="70" y="358.44827586206895" text-anchor="end" font-family="monospace" font-size="11">0</text>
<text x="70" y="385" text-anchor="end" font-family="monospace" font-size="11">-0.04</text>
<rect x="166.75" y="137.11" width="18.04" height="225.33" fill="#525252"><title>L35 a1.0 r4 tw16: baseline_flip_rate=0.4083</title></rect>
<rect x="188.75" y="132.52" width="18.04" height="229.93" fill="#c2410c"><title>L35 a1.0 r4 tw16: ara_flip_rate=0.4167</title></rect>
<text x="188.75" y="478" transform="rotate(-35 188.75 478)" text-anchor="end" font-family="sans-serif" font-size="12">[35]</text>
<rect x="384.25" y="137.11" width="18.04" height="225.33" fill="#525252"><title>L33 a1.0 r4 tw16: baseline_flip_rate=0.4083</title></rect>
<rect x="406.25" y="117.80" width="18.04" height="244.65" fill="#c2410c"><title>L33 a1.0 r4 tw16: ara_flip_rate=0.4433</title></rect>
<text x="406.25" y="478" transform="rotate(-35 406.25 478)" text-anchor="end" font-family="sans-serif" font-size="12">[33]</text>
<rect x="601.75" y="137.11" width="18.04" height="225.33" fill="#525252"><title>L31-32-33 a1.0 r4 tw16: baseline_flip_rate=0.4083</title></rect>
<rect x="623.75" y="109.98" width="18.04" height="252.47" fill="#c2410c"><title>L31-32-33 a1.0 r4 tw16: ara_flip_rate=0.4575</title></rect>
<text x="623.75" y="478" transform="rotate(-35 623.75 478)" text-anchor="end" font-family="sans-serif" font-size="12">[31,32,33]</text>
<rect x="819.25" y="137.11" width="18.04" height="225.33" fill="#525252"><title>L33-34-35 a1.0 r4 tw16: baseline_flip_rate=0.4083</title></rect>
<rect x="841.25" y="80.55" width="18.04" height="281.90" fill="#c2410c"><title>L33-34-35 a1.0 r4 tw16: ara_flip_rate=0.5108</title></rect>
<text x="841.25" y="478" transform="rotate(-35 841.25 478)" text-anchor="end" font-family="sans-serif" font-size="12">[33,34,35]</text>
<rect x="80" y="498" width="12" height="12" fill="#525252"/>
<text x="97" y="508" font-family="sans-serif" font-size="12">baseline_flip_rate</text>
<rect x="241" y="498" width="12" height="12" fill="#c2410c"/>
<text x="258" y="508" font-family="sans-serif" font-size="12">ara_flip_rate</text>
</svg>